<svg xmlns:xlink="http://www.w3.org/1999/xlink" width="54.47ex" height="7.843ex" style="vertical-align: -3.338ex;" viewBox="0 -1939.5 23452.4 3376.7" role="img" focusable="false" xmlns="http://www.w3.org/2000/svg" aria-labelledby="MathJax-SVG-1-Title">
<title id="MathJax-SVG-1-Title">Equation</title>
<defs aria-hidden="true">
<path stroke-width="1" id="E1-MJMAIN-3D" d="M56 347Q56 360 70 367H707Q722 359 722 347Q722 336 708 328L390 327H72Q56 332 56 347ZM56 153Q56 168 72 173H708Q722 163 722 153Q722 140 707 133H70Q56 140 56 153Z"></path>
<path stroke-width="1" id="E1-MJMAIN-D7" d="M630 29Q630 9 609 9Q604 9 587 25T493 118L389 222L284 117Q178 13 175 11Q171 9 168 9Q160 9 154 15T147 29Q147 36 161 51T255 146L359 250L255 354Q174 435 161 449T147 471Q147 480 153 485T168 490Q173 490 175 489Q178 487 284 383L389 278L493 382Q570 459 587 475T609 491Q630 491 630 471Q630 464 620 453T522 355L418 250L522 145Q606 61 618 48T630 29Z"></path>
</defs>
<g stroke="currentColor" fill="currentColor" stroke-width="0" transform="matrix(1 0 0 -1 0 0)" aria-hidden="true">
<text font-family="monospace" stroke="none" transform="scale(71.759) matrix(1 0 0 -1 0 0)">训</text>
<g transform="translate(932,0)">
<text font-family="monospace" stroke="none" transform="scale(71.759) matrix(1 0 0 -1 0 0)">练</text>
</g>
<g transform="translate(1865,0)">
<text font-family="monospace" stroke="none" transform="scale(71.759) matrix(1 0 0 -1 0 0)">耗</text>
</g>
<g transform="translate(2798,0)">
<text font-family="monospace" stroke="none" transform="scale(71.759) matrix(1 0 0 -1 0 0)">时</text>
</g>
 <use xlink:href="#E1-MJMAIN-3D" x="4009" y="0"></use>
<g transform="translate(4787,0)">
<g transform="translate(120,0)">
<rect stroke="none" width="18424" height="60" x="0" y="220"></rect>
<g transform="translate(3470,949)">
<text font-family="monospace" stroke="none" transform="scale(71.759) matrix(1 0 0 -1 0 0)">训</text>
<g transform="translate(932,0)">
<text font-family="monospace" stroke="none" transform="scale(71.759) matrix(1 0 0 -1 0 0)">练</text>
</g>
<g transform="translate(1865,0)">
<text font-family="monospace" stroke="none" transform="scale(71.759) matrix(1 0 0 -1 0 0)">数</text>
</g>
<g transform="translate(2798,0)">
<text font-family="monospace" stroke="none" transform="scale(71.759) matrix(1 0 0 -1 0 0)">据</text>
</g>
<g transform="translate(3731,0)">
<text font-family="monospace" stroke="none" transform="scale(71.759) matrix(1 0 0 -1 0 0)">规</text>
</g>
<g transform="translate(4664,0)">
<text font-family="monospace" stroke="none" transform="scale(71.759) matrix(1 0 0 -1 0 0)">模</text>
</g>
 <use xlink:href="#E1-MJMAIN-D7" x="5819" y="0"></use>
<g transform="translate(6820,0)">
<text font-family="monospace" stroke="none" transform="scale(71.759) matrix(1 0 0 -1 0 0)">单</text>
<g transform="translate(932,0)">
<text font-family="monospace" stroke="none" transform="scale(71.759) matrix(1 0 0 -1 0 0)">步</text>
</g>
<g transform="translate(1865,0)">
<text font-family="monospace" stroke="none" transform="scale(71.759) matrix(1 0 0 -1 0 0)">计</text>
</g>
<g transform="translate(2798,0)">
<text font-family="monospace" stroke="none" transform="scale(71.759) matrix(1 0 0 -1 0 0)">算</text>
</g>
<g transform="translate(3731,0)">
<text font-family="monospace" stroke="none" transform="scale(71.759) matrix(1 0 0 -1 0 0)">量</text>
</g>
</g>
</g>
<g transform="translate(60,-881)">
<text font-family="monospace" stroke="none" transform="scale(71.759) matrix(1 0 0 -1 0 0)">单</text>
<g transform="translate(932,0)">
<text font-family="monospace" stroke="none" transform="scale(71.759) matrix(1 0 0 -1 0 0)">设</text>
</g>
<g transform="translate(1865,0)">
<text font-family="monospace" stroke="none" transform="scale(71.759) matrix(1 0 0 -1 0 0)">备</text>
</g>
<g transform="translate(2798,0)">
<text font-family="monospace" stroke="none" transform="scale(71.759) matrix(1 0 0 -1 0 0)">计</text>
</g>
<g transform="translate(3731,0)">
<text font-family="monospace" stroke="none" transform="scale(71.759) matrix(1 0 0 -1 0 0)">算</text>
</g>
<g transform="translate(4664,0)">
<text font-family="monospace" stroke="none" transform="scale(71.759) matrix(1 0 0 -1 0 0)">速</text>
</g>
<g transform="translate(5597,0)">
<text font-family="monospace" stroke="none" transform="scale(71.759) matrix(1 0 0 -1 0 0)">率</text>
</g>
 <use xlink:href="#E1-MJMAIN-D7" x="6752" y="0"></use>
<g transform="translate(7753,0)">
<text font-family="monospace" stroke="none" transform="scale(71.759) matrix(1 0 0 -1 0 0)">设</text>
<g transform="translate(932,0)">
<text font-family="monospace" stroke="none" transform="scale(71.759) matrix(1 0 0 -1 0 0)">备</text>
</g>
<g transform="translate(1865,0)">
<text font-family="monospace" stroke="none" transform="scale(71.759) matrix(1 0 0 -1 0 0)">数</text>
</g>
</g>
 <use xlink:href="#E1-MJMAIN-D7" x="10773" y="0"></use>
<g transform="translate(11774,0)">
<text font-family="monospace" stroke="none" transform="scale(71.759) matrix(1 0 0 -1 0 0)">多</text>
<g transform="translate(932,0)">
<text font-family="monospace" stroke="none" transform="scale(71.759) matrix(1 0 0 -1 0 0)">设</text>
</g>
<g transform="translate(1865,0)">
<text font-family="monospace" stroke="none" transform="scale(71.759) matrix(1 0 0 -1 0 0)">备</text>
</g>
<g transform="translate(2798,0)">
<text font-family="monospace" stroke="none" transform="scale(71.759) matrix(1 0 0 -1 0 0)">并</text>
</g>
<g transform="translate(3731,0)">
<text font-family="monospace" stroke="none" transform="scale(71.759) matrix(1 0 0 -1 0 0)">行</text>
</g>
<g transform="translate(4664,0)">
<text font-family="monospace" stroke="none" transform="scale(71.759) matrix(1 0 0 -1 0 0)">效</text>
</g>
<g transform="translate(5597,0)">
<text font-family="monospace" stroke="none" transform="scale(71.759) matrix(1 0 0 -1 0 0)">率</text>
</g>
</g>
</g>
</g>
</g>
</g>
</svg>